<?xml version="1.0" encoding="UTF-8"?>
<svg id="b" data-name="Calque 2" xmlns="http://www.w3.org/2000/svg" viewBox="0 0 511.13791 487.41106">
  <defs>
    <style>
      .d {
        fill: #2563eb;
      }
    </style>
  </defs>
  <g id="c" data-name="Calque 1">
    <g>
      <path class="d" d="M504.7437,256.10061c-1.5119-2.56279-3.30554-6.00966-5.71492-9.44374l4.81823-12.45487c.29461-.75602-.15387-1.58884-.92269-1.7683l-3.78002-.92262,3.101-7.6497c.33294-.82015-.23054-1.7683-1.14036-1.81957l-35.64784-2.56272c2.01184-4.63863,1.85797-9.1362,1.70437-13.50569-.32034-9.09766.30747-5.26638.93529-15.24826.60208-.05127,1.05056-.56381,1.67864-1.85797,3.61328-7.48323,3.86982-16.7219.53828-24.35886-4.35663-9.99468-12.6474-12.74968-18.34946-9.84095-8.04711-13.32622-30.03532-14.60765-41.84931.0256-4.26709,5.27931-6.61214,12.19866-6.79148,19.14368-.02547,1.26863.84575,13.22375,3.88268,17.86232-2.25525,1.69137-3.70334,4.77957-3.26747,8.17511-4.22875.74322-8.04711,3.95948-9.57187,8.23918-1.53763,4.29269-.69215,9.39247,2.02445,12.95475l-18.66954.21781c-.83288.0128-1.4481.78162-1.28136,1.6017l1.4607,7.15009-3.08813.57655c-.75595.141-1.24276.88415-1.06342,1.61457l2.06304,8.54678c-3.11387,5.44579-6.08647,10.87877-8.80332,16.17088-3.57495,6.93215-8.12351,12.82648-8.54652,20.78378-4.26709,11.16071,4.4207,20.46351,17.60611,17.95199,4.97184.76882,8.27765,1.21729,13.33902,1.15323l.52541,2.52432v14.96639c0,.73035.60208,1.33263,1.33256,1.33263.74308,0,1.34543-.58941,1.34543-1.33263v-12.81374l46.57774-8.50832,31.26548,7.12442v14.47958c0,.73035.58922,1.33256,1.33256,1.33256.73048,0,1.33256-.58948,1.33256-1.33256v-13.8773c3.44707.76882,3.44707.82008,3.72908.82008.53801,0,1.05056-.33314,1.2425-.84575l2.01184-5.18951c.98675.25627,1.98637.51261,2.97286.75608,6.66308,1.56323,15.04339,1.21723,20.20717-3.25474,2.47318-2.12705,4.36949-4.5617,5.66372-7.18849,1.52477-3.11373,2.19118-6.39401,2.19118-9.72561,0-6.82968-2.76779-13.83883-6.3942-20.00217ZM499.08024,224.55326l-2.56272,6.31714-37.90308-9.21307,4.71583.34601,35.74998,2.54992ZM453.45066,176.45069c2.46032,5.26638,6.53494,9.96902,12.03219,13.14682-.14126,1.92211-.1284,3.34441-.42301,5.68932-4.3309-5.84306-12.92888-4.43356-15.40207,2.39612-1.5505-.49974-3.21627-.51254-4.76677-.0128-3.0624-7.63697-13.42882-7.63697-16.50383-.0128l-7.38069-3.69035c12.31367-1.44796,24.10272-7.72663,32.44417-17.51631ZM464.29129,200.95048c0,3.66468-2.81899,6.66314-6.27893,6.66314-3.45968,0-6.27867-2.99846-6.27867-6.66314,0-3.67755,2.81899-6.66314,6.27867-6.66314,3.45994,0,6.27893,2.9856,6.27893,6.66314ZM442.91776,201.24516c0,3.67755-2.81899,6.66314-6.27867,6.66314s-6.27893-2.9856-6.27893-6.66314c0-3.66468,2.81926-6.65034,6.27893-6.65034,3.56234,0,6.27867,3.1522,6.27867,6.65034ZM409.47423,193.39032c.17908-.064.34581-.14094.46108-.21781,1.81964-.57661,3.92102.12814,5.65112.92255.33294.41007-.28227-.06407,12.19866,6.22753-.55141,5.76619,3.79262,10.23815,8.84113,10.23815,5.06138,0,9.444-4.47196,8.85426-10.27662.06407-.0256.12814-.06407.1922-.08973.0772,2.10145.05146,4.21576-.16647,6.3044-.07667.75595.49968,1.4095,1.25563,1.4607.99936.05133,1.96038,1.01235,2.10164,2.08865.14074,1.11476-.56401,2.33212-1.53763,2.66526-.92295.32034-2.11451-.1922-2.60132-1.12762-.33321-.66628-1.12776-.92249-1.79417-.57661-.65328.33321-.90956,1.12762-.57635,1.79397,1.08916,2.11418,3.65188,3.1906,5.84306,2.42179,2.15258-.74322,3.60068-3.165,3.30581-5.50992-.24341-1.88357-1.56284-3.48534-3.24174-4.13882.14074-1.83237.15361-3.69035.07693-5.54839.28174.06413.52541.1666.78168.26914-.57661,8.85426,9.73835,13.32629,15.41467,6.95782.12814,3.89542.0898,7.61136-1.64004,11.41705-.0898.1922-.1796.37161-.26914.57655l-8.99526-.65342c-.66615-.05127-1.28136.42281-1.39663,1.08916l-.07667.38441-.48707-.10254c-.67928-.17934-1.37116.21787-1.58884.87135l-3.76741,11.72452c-4.99731,1.19169-9.98175.61501-14.50511-1.34543-.47395-3.04967-1.4733-9.40527-1.4733-9.45654-.11553-.56381-.70501-1.14042-1.30709-1.08909-.32034,0-1.24276.01273-1.4481.01273l-7.27803.07693c-.90982-1.66584-1.61457-3.76722-1.94777-5.36892-.38441-1.4993-.75621-5.06144-.52515-6.15067,1.02456-.75595.48655-2.39612-.79481-2.39612-.20481,0-.39727.0128-.39727.0256-1.01222,0-2.17831-.08967-3.12647-.30747-4.31803-.94822-6.98342-4.47196-6.98342-7.86764-.03834-2.22958,1.19156-4.45916,2.94739-5.30491ZM413.40759,223.51537l-32.89265,6.03526-1.1401-5.61239,34.03274-.42288ZM372.86538,264.737c-3.62641.64068-7.25256,2.9216-10.07181,6.02246,1.12776-2.79339,2.65252-5.52272,4.15208-8.18798,1.44783-2.54992,2.58819-4.74097,4.01056-7.4575,1.4221-2.71659,3.13907-5.94559,5.76613-10.5841l3.60068,14.94072c-1.21756.48688-2.90879,1.40956-4.13895,2.34492-1.5245,1.15316-2.13998,1.93491-2.8316,2.81899-.16673.0384-.32034.07693-.48707.10247ZM382.46272,293.8113c2.13972-.84569,4.17729-1.92204,5.62539-3.25467l.75569,3.56228c-2.16519.02554-4.29256-.10254-6.38107-.30761ZM374.90269,278.51176c-1.75557-4.20289-1.6915-9.04646.14074-11.78859,2.11451-3.1138,6.2406-5.22798,9.89221-5.85586,1.39689-.26907,3.0498-.30747,3.2932,1.10196.0386.12814-.0126.205-.02573.32034l-4.44617,1.78117c-.67928.28181-1.01222,1.05069-.73048,1.74264.26914.67908,1.03796,1.01222,1.7301.73035l4.18989-1.67857c.24341.0128.49968-.0128.73022-.14094,1.26876-.69201,2.42198-1.26863,3.58781-1.43523.83315-.1024,2.03757.06413,2.65252.89702.48681.64068.34607,1.70424-.06407,2.03738l-7.13729,3.08807c-1.31943.56381-.90956,2.54992.52567,2.54992.49942,0,.19194-.01273,7.5217-3.12653.67902-.06407,1.44783.42288,1.72958,1.11489.21767.52528.20507,1.20449-.19194,1.89638-2.61419,1.26856-5.34364,2.25525-8.13691,2.92146-.71761.1666-1.16583.88415-.99962,1.58897.167.70475.87175,1.16603,1.6017.99942,2.72972-.64068,5.38172-1.6145,7.93184-2.79333.15387.0128.30774.0128.47421-.02567.79455-.1666,1.62743.58941,1.6915,1.44796.14074,1.67857-1.14062,2.87026-1.96064,3.44687-.73048.55095-1.57597,1.10196-2.58819,1.67857-8.48298,4.76677-17.75998,6.48374-21.41186-2.49865ZM392.57287,298.80867c-.01313-.14094-.0512-.26914-.1024-.38441l-2.48605-11.78859c4.16442-1.25576,8.21358-3.43407,10.50716-5.17671,4.13895-2.9728,3.81861-7.82924.55088-9.35407.35894-1.07629.33347-2.28078-.1024-3.30587-.282-.69201-.79429-1.24296-1.35803-1.70424l26.92171-4.99737c.72996-.12814,1.20416-.82002,1.06316-1.55043-.12787-.71755-.82002-1.20449-1.5505-1.06356l-27.17772,5.04864c-.43561-2.9472-3.72881-5.01017-8.04711-3.33154-.23054-.93549-.78142-1.78117-1.52477-2.29372-1.8325-1.30696-4.22849-.90975-6.41967-.32034l-4.33116-17.96479v-.0128l-1.85771-7.66263c36.81367-6.75281,47.66664-8.73899,50.42183-9.23867,0,0,.02573,0,.1024-.0128,0-.0128.01313-.0128.03834-.0128.01287,0,.02573-.01287.0386-.01287.03834,0,.06407-.0128.11553-.0128.0126-.01273.02547-.01273.03834-.01273.02573,0,.05146-.01287.08954-.01287h.01313c.05094-.0128.10214-.02567.15361-.03847.12787-.02567.20481-.0384.23054-.0384,5.01044,32.12396,6.48374,41.51637,6.85528,43.87408,0,0,.01287.0256.01287.08973.01287.08967.02573.16654.0386.23061v.0256c.01287.0128.01287.02567.01287.05127,0,.02567.01287.05127.01287.07693,0,.0128.01234.0384.01234.064,0,.06407.01313.10254.01313.12814v-.07687c0,.06413.0126.11534.0126.11534l-6.70168,20.83512c-.24314.75595.2182,1.53763.96102,1.70424l3.47254.79442-40.02967,7.34223ZM476.02835,298.66773l-44.87364-10.23815,11.89119-37.00593c.23054-.69201-.15361-1.44796-.85835-1.66584-.69188-.23067-1.4481.1538-1.67864.85855l-3.81835,11.87826-4.4207-28.25421c4.17676,1.51203,8.57225,2.02458,13.10822,1.21736l-2.54986,7.90604c-.2182.70468.16647,1.4479.85835,1.67857.70475.21787,1.4607-.1666,1.67864-.85849l3.2546-10.11002,3.62615-11.23758c.2568.06407,45.83492,11.16064,48.56412,11.81419l-8.40578,21.68074c-2.39625-1.48637-5.70206-3.16494-8.27765-1.97324-.82028.39721-1.4993,1.11476-1.88344,1.97324-4.79276-2.95993-9.14913-.15374-8.68779,3.72881-2.21665.60221-3.54948,2.79339-3.21627,5.13831-3.42108.92255-4.61316,5.61245-.98649,9.30273,3.26747,3.38281,8.25165,6.94508,12.77501,8.40585-.11527.29467-6.09933,15.76081-6.09933,15.76081ZM480.67958,269.72157c-2.65226-1.17883-5.18925-2.65246-7.56003-4.3951-.64068-1.5889.62808-3.06253,1.99924-2.65246l6.38107,4.25416c.61495.42288,1.43523.24347,1.84511-.35874.41014-.61508.24341-1.43523-.37154-1.85797l-6.53494-4.35669c-.44848-.48694-.25627-1.5505.25627-2.01178.74335-.71755,1.90918-.66628,2.75493-.39721,1.17896.39721,2.30645,1.28136,3.30581,2.07578.1796.141.38467.20507.57661.21794l3.95962,2.49859c.61495.38447,1.44783.20507,1.83224-.42281.39727-.61508.20481-1.4351-.41014-1.83237l-4.10036-2.58839c-.17908-3.39561,9.41827.75602,12.2244,6.84248,2.13972,4.7027-.90982,12.27553-4.81797,14.94086-6.1634,4.20283-15.61974-1.67864-20.77092-6.99635-.55088-.56381-1.79391-2.06298-1.37116-3.74155.11553-.44848.44848-.83295.87122-1.05076.71761-.34601.99936.01287,1.4993.05127,2.33218,1.64017,4.77963,3.07527,7.35522,4.21576.17908.07687.35868.11527.53801.11527,1.43523,0,1.85797-1.97331.53801-2.54992ZM501.5403,291.0051c-4.59977,3.98509-12.237,3.98509-17.84926,2.66526-.85835-.205-1.7427-.42288-2.61419-.65348l2.01184-5.20238c3.61354,1.75544,8.30338,2.90873,10.93017,3.08813,3.3318.23067,6.80408-.33314,9.69975-2.10145-.66615.76875-1.3835,1.51197-2.17831,2.20392ZM497.13247,260.34191c-.90956-1.08909-1.96038-2.03731-2.46006-2.43452l3.19054-8.23924c1.15323,1.79391,2.21665,3.66475,3.1908,5.38172,2.48553,4.35669,5.20238,8.64925,6.67568,15.04333-2.35791-4.36949-6.31701-8.09824-10.59696-9.75128Z"/>
      <path class="d" d="M422.22378,237.84108l-35.09669,5.84306c-.73048.12814-1.21756.80722-1.08916,1.52483.12814.74322.81976,1.21729,1.5245,1.08916l35.09696-5.83026c.73022-.12814,1.21729-.80722,1.08889-1.52483-.11527-.71755-.79402-1.23009-1.5245-1.10196Z"/>
      <path class="d" d="M419.34072,249.68094l-28.80542,5.07424c-.73048.11534-1.20416.82008-1.07629,1.53763.12814.74322.83315,1.21736,1.5505,1.07629l28.8049-5.06131c.71788-.1282,1.20495-.82008,1.07655-1.5505-.141-.71755-.83262-1.20449-1.55024-1.07636Z"/>
      <path class="d" d="M438.63807,200.05347c-1.3583,1.25576-3.2932,1.28136-4.6515.20507-.58922-.44854-1.4221-.35881-1.88371.23067-.44821.57655-.35868,1.40943.23054,1.87071,2.46058,1.92204,5.85619,1.7555,8.11144-.34588.53801-.49981.57635-1.34549.07693-1.88371-.49994-.53815-1.34569-.57661-1.88371-.07687Z"/>
      <path class="d" d="M458.79404,199.68192c-1.19156.73035-2.81899.61501-3.90815-.28194-.55088-.46128-1.39689-.38441-1.87084.1794-.46134.56381-.38441,1.4095.17934,1.87084,1.97324,1.62724,4.84344,1.83231,6.99655.49968.62755-.38441.81976-1.20449.43535-1.83237s-1.20443-.82002-1.83224-.43561Z"/>
      <path class="d" d="M447.26179,222.02901c.65328-.34601.90956-1.14042.56375-1.79397-.34607-.65348-1.14036-.90975-1.79391-.56381-2.97286,1.5505-6.74001.85855-8.87999-1.6529-.47421-.56381-1.30683-.62788-1.87084-.15374-.56375.47408-.62781,1.3069-.15361,1.87071,2.92114,3.45974,8.04684,4.43356,12.1346,2.29372Z"/>
      <path class="d" d="M415.67571,204.98671c.71761-.14094,1.19209-.84562,1.03796-1.56323-.15361-.71755-.85835-1.17883-1.5631-1.03789-.89695.1794-1.92204-.48694-2.22978-1.4223-.30721-.98669.15413-2.24238,1.01249-2.69092.64068-.35874.88409-1.15316.53801-1.80671-1.19156-2.22958-5.34312,1.39663-4.07462,5.31765.70475,2.21685,3.07527,3.65195,5.27905,3.2034Z"/>
      <path class="d" d="M469.00659,281.84337l-24.53807-7.85484c-.71788-.21781-1.44836.1666-1.6789.87135-.2308.70475.16647,1.44796.85862,1.67857l24.53807,7.84197c.71761.21781,1.46096-.1666,1.67864-.87129.21767-.70475-.15361-1.44796-.85835-1.66577Z"/>
      <path class="d" d="M457.99949,286.12306l-15.00479-4.4975c-.70501-.21794-1.44783.17934-1.65317.88402-.21767.70481.1796,1.44796.88461,1.66584,15.96555,4.7795,15.03026,4.5489,15.37633,4.5489,1.53763.0128,1.85797-2.15271.39701-2.60126Z"/>
      <path class="d" d="M259.94934,386.45081c0-.83997-.69019-1.52997-1.54004-1.52997-.21997,0-7.07007.00995-8.47998.01996h-.5v-.32001l-.02002-14.81995,8.42993-8.35004c.30005-.28998.45996-.66998.45996-1.08002,0-.41998-.1499-.79999-.43994-1.09998-.29004-.28998-.67993-.45001-1.09009-.45001h-.01001c-.40991,0-.79004.15002-1.07983.44l-8.37012,8.27002h-.09985l-15.40015.03998-.03003-10.12c0-.44-.13989-.79999-.42993-1.08002-.31006-.28998-.68994-.40997-.90991-.45996h-.2002c-.40991,0-.7998.15997-1.08984.45001-.29004.29999-.44995.67999-.44995,1.08997l.03003,10.13-8.99023.02002c-.84985.01001-1.53979.70001-1.53979,1.54999s.69995,1.53998,1.53979,1.53998c.22021,0,7.08008-.01996,8.5-.02997h.5v.32001c0,.64996.01025,5.53998.01025,9.50995l.00977,3.66003c0,.81,0,1.25-.02002,1.5h.02002c0,.22998-.02002.83002-.00977.90002.00977.00995.01978.06.02979.14996.11011.94.86011,1.37,1.51001,1.37.42993,0,13.58008-.02997,15.56006-.03998h.5l.01001.25c0,.02997,0,.04999-.01001.07001l.02002,8.01001c0,.84998.68994,1.53998,1.54004,1.53998.84985,0,1.54004-.69,1.54004-1.53998l-.01001-8.34003,8.96997-.02002c.84985,0,1.54004-.69995,1.54004-1.54999ZM231.81921,370.66083l12.37012-.04004-12.34009,12.20001-.03003-12.15997ZM234.04919,384.98084l12.28003-12.14001.02002,12.10999-12.30005.03003Z"/>
      <path class="d" d="M280.8092,359.09083h31.45996l.05005.17999c.73999,2.65997,3.13013,4.48999,5.93994,4.54999,2.80005.04004,5.06006-1.64996,6.01001-4.56l.05005-.16998h4.23999c.8501,0,1.55005-.69,1.55005-1.53998,0-.85004-.69995-1.54004-1.55005-1.54004h-4.01001l-.04004-.20001c-.70996-3.06-3.48999-4.5-5.92993-4.56-2.36987-.07996-5.25,1.10004-6.25,4.58002l-.06006.17999h-31.45996c-.84985,0-1.55005.69-1.55005,1.54004,0,.84998.7002,1.53998,1.55005,1.53998ZM316.8092,354.66083c.42993-.23004.95996-.34003,1.51001-.34003.73999,0,1.51001.20001,2.09009.59003.84009.56,1.23999,1.45001,1.12988,2.48999-.13989,1.44-1.08984,2.83997-2.15991,3.20001-.29004.08997-.6001.13995-.91016.13995-.69995,0-1.43994-.22998-2.02979-.65997-.83008-.59998-1.29004-1.48999-1.29004-2.5.01001-1.20001.67993-2.37,1.65991-2.91998Z"/>
      <path class="d" d="M280.8092,378.3808h7.44019l.0498.17999c.73999,2.66003,3.11011,4.49005,5.90015,4.55005,2.78979.03998,5.05005-1.64001,6.01978-4.56l.05005-.17004h28.29004c.8501,0,1.55005-.69,1.55005-1.53998,0-.85004-.69995-1.54999-1.55005-1.54999h-28.03003l-.04004-.20001c-.5498-2.97003-3.38989-4.44-5.78979-4.56-2.43018-.10999-5.40015,1.02997-6.40015,4.58002l-.0498.17999h-7.44019c-.84985,0-1.55005.69995-1.55005,1.54999,0,.84998.7002,1.53998,1.55005,1.53998ZM292.8092,373.9408c.84009-.45001,2.21997-.41998,3.26001.07001.76001.35004,1.23999.91003,1.38013,1.56.38989,1.82001-.82007,3.90002-2.08008,4.32001-.28003.09003-.58008.13-.88013.13-.73975,0-1.52002-.26001-2.1499-.72998-.81006-.62-1.23999-1.48004-1.20996-2.44.02002-1.21002.69995-2.38,1.67993-2.91003Z"/>
      <path class="d" d="M280.27917,397.66083h21.4502l.0498.17999c.73999,2.60999,3.20996,4.47998,5.98999,4.53998h.13013c2.68994,0,4.85986-1.69,5.80005-4.54999l.05981-.16998h14.28003c.8501,0,1.54004-.70001,1.54004-1.54999,0-.85004-.68994-1.54004-1.54004-1.54004h-14.03003l-.04004-.20001c-.5498-2.95996-3.3999-4.42999-5.81982-4.54999-2.41992-.09998-5.36011,1.03003-6.37012,4.57001l-.0498.17999h-21.4502c-.84985,0-1.54004.69-1.54004,1.54004,0,.84998.69019,1.54999,1.54004,1.54999ZM306.27917,393.23084c.36011-.19.89014-.31,1.47998-.31.6001,0,1.25.12,1.83008.38995.97998.46002,1.47998,1.35004,1.41016,2.51001-.08008,1.46002-1.07007,2.98999-2.15015,3.34003-.29004.08997-.59985.14001-.91992.14001-.72998,0-1.48999-.25-2.11011-.72003-.80005-.60999-1.23999-1.5-1.19995-2.45001.02002-1.20996.68994-2.38,1.65991-2.89996Z"/>
      <path class="d" d="M349.81921,459.1208c-1.37988-4.65997-5.91992-3.84998-8.61987-3.35999l-.16016.03003q-.68994.12-2.03003.31c-1.06982.15997-2.98999.42999-6.80981.98999l-.25.03998-.04004-.25c-.92017-6.25-1.39014-9.35999-2.63013-17.63l-.91992-6.09998.28003-.01001c3.92993-.10999,4.61011-.22998,4.93994-.33002,6.57007-1.69,6.57007-8.28998,6.57007-10.77997v-71.66003c0-3.06995,0-8.21997-4.66992-10.21997-4.55005-1.94-31.93018-1.20001-48.28003-.75-5.33008.14001-9.54004.25-11.87012.25-3.78003,0-5.97998,1.17999-7.15991,3.81l-.06006.13-.12988.01001c-11.79004,1.51996-21.52002,2.76001-29.58008,3.77997-35.83008,4.54004-38.76001,4.91003-43.68018,7.92004-5.34985,2.87-8.5,9.97998-7.23975,13.58997.65991,1.89001,2.42993,2.63,5.12988,2.14001l13.66992-2.17999.04004.23999c0,.02997.34009,2.20001,1.04004,6.71002,1.27002,8.17999,3.34009,21.53998,4.09009,26.31l.03003.17999-.17017.07996c-9.11987,4.43005-17.93994,9.86005-21.02002,12.13-.70996.53003-.72998.54004-.65991,8.69.04004,5.03003.10986,13.45001.02002,27.07001,0,1.85004.91992,3.60004,2.45996,4.69,1.71997,1.16998,27.51001,16.32001,27.67993,16.41003.91016.50995,1.48999.51996,2.19019.37l.25977-.05005.22021,1.39001c.5,3.29004.96997,6.39001,2.58984,9.26001,2.23999,3.84998,5.51001,5.57001,9.43018,4.96002.17993-.02002.25-.03003.30981-.02002,11.88013-1.70001,30.48999-4.02002,48.48999-6.27002,18.7002-2.33997,38.03003-4.75,49.82007-6.45996,4.29004-.63,9.63013-1.41003,13.47998-4.86005,2.97998-2.65997,4.31006-7,3.23999-10.54999v-.01001ZM269.03918,420.32081l1.21997-1.39996c.25-.28003.38013-.64001.38013-1.01001,0-3.64001-.07007-11.81-.15991-21.28003-.18018-19.33997-.41016-43.40997-.19019-48.62.27002-4.14001,1.36011-5.27002,5.04004-5.27002,1.67993,0,5.42993-.09998,10.17017-.22998,16.78979-.44,44.8999-1.16998,48.76978.47003,2.59009,1.10999,2.79004,3.88,2.79004,7.38995v71.66003c0,4.82001-1.18994,7-4.23999,7.78998-1.37988.28003-11.31006.40002-29.33008.63-10.32983.12-23.18994.28003-38.65991.52002-1.11011,0-2.11987-.58002-2.52002-1.45001-.29004-.65997-.16992-1.35999.34009-1.94,1.83984-2.07001,3.70996-4.21002,6.38989-7.26001ZM219.74939,433.1908l-4.31006-2.90997c-11.08008-7.52002-16.77002-11.38-21.16016-14.33002l-.31006-.21002.31006-.20996c8.90015-5.83002,16.18018-9.48999,25.03003-13.52002,1.52002-.70001,3.38013-.59998,4.94995.26001,2.25,1.22998,4.5,2.37,6.68018,3.46002,6.1499,3.08997,11.94995,6.00995,17.16992,10.69l.23999.20996-.27002.17999c-3.88989,2.54004-8.86011,5.24005-13.65991,7.86005-5.14014,2.81-10.45996,5.70996-14.53003,8.42999l-.13989.08997ZM221.6593,468.55085l-.37012.21997v-32.87l.11011-.07001c4.26001-2.88,9.69995-5.84003,14.96997-8.70001,4.36011-2.38,8.86011-4.82996,12.53003-7.14996l.37988-.24005v30.71002c0,1.03003-.52002,1.96002-1.40991,2.48999-4.93994,2.92004-9.15015,5.42999-26.20996,15.61005ZM328.64929,457.60084c-33.61011,4.70996-45.86011,6.32996-54.80005,7.51001-8.01001,1.06-12.84009,1.69995-28,3.90997-.36987.06-.82007.09003-1.30005.12-1.60986.10999-3.60986.25-4.92993,1.32001-1.65015,1.31-1.28003,3.03998-1.07007,4.07001,1.02002,4.89996-1.19995,8.52002-3.91992,9.57001-.51001.19-1.07007.29999-1.66992.29999-1.70996,0-3.68018-.94-5.22998-3.59998-1.3501-2.39001-1.79004-5.26001-2.29004-8.58002-.1001-.64001-.2002-1.29004-.30005-1.97003l-.03003-.16998.14014-.08002c13.08984-7.81,19.07983-11.38995,24.18994-14.40997,1.83984-1.09003,2.92993-3.02002,2.92993-5.14001-.01001-10.46002,0-17.71002.01001-22.75.03003-11.01001.03003-11.45001-.34009-11.78998-.03003-.03003-.07007-.07001-.09985-.10999l-.04004-.06006c-.01001,0-.02002-.00995-.03003-.01996-5.95996-5.91003-12.54004-9.22003-19.5-12.72003-2.15991-1.08997-4.40015-2.21997-6.63013-3.42999-2.42993-1.33002-5.30981-1.46997-7.70996-.35999-.82983.38-1.62988.75-2.42993,1.12l-1.21997.58002-5.33008-34.10999c-.77002-4.22003-2.08008-8.47003-6.33008-10.90002l-.5498-.32001.60986-.14001c3.12012-.73999,4.41016-.89996,37.33008-5.13995,7.29004-.94,16.12988-2.07001,26.87988-3.46002l.31006-.03998-.03003.31c-.31982,3.32996-.07983,28.57996.12012,48.87.09009,9.13995.15991,17.02997.16992,21.25v.09998l-.82983.95001c-2.52002,2.87-4.57007,5.20996-6.39014,7.26001-1.33008,1.5-1.63989,3.46997-.83008,5.25.90015,2.01001,2.97998,3.26001,5.41016,3.26001.41992,0,59.96997-.82001,60.10986-.82001l.22021-.01001.02979.21997c2.45996,16.31,2.7002,17.90002,3.58008,23.88l.04004.23999-.25.04004Z"/>
      <path class="d" d="M282.1593,411.49079c-.8501,0-1.54004.69-1.54004,1.55005v5.5c0,.84998.68994,1.53998,1.54004,1.53998.85986,0,1.55005-.69,1.55005-1.53998v-5.5c0-.86005-.69019-1.55005-1.55005-1.55005Z"/>
      <path class="d" d="M296.54919,411.6308c-.84985,0-1.54004.69-1.54004,1.54004v5.50995c0,.85004.69019,1.54004,1.54004,1.54004.8501,0,1.55005-.69,1.55005-1.54004v-5.50995c0-.85004-.69995-1.54004-1.55005-1.54004Z"/>
      <path class="d" d="M310.93933,411.36085c-.8501,0-1.54004.69-1.54004,1.53998v5.5c0,.84998.68994,1.53998,1.54004,1.53998.85986,0,1.5498-.69,1.5498-1.53998v-5.5c0-.84998-.68994-1.53998-1.5498-1.53998Z"/>
      <path class="d" d="M325.32922,411.22083c-.84985,0-1.54004.69-1.54004,1.53998v5.5c0,.85004.69019,1.54999,1.54004,1.54999.8501,0,1.54004-.69995,1.54004-1.54999v-5.5c0-.84998-.68994-1.53998-1.54004-1.53998Z"/>
      <path class="d" d="M45.28601,290.01044c-1.75146-.0119-3.12134,1.71564-3.05005,3.88403.07153,2.1684,1.57275,3.9436,3.33594,3.95551,1.76343.02386,3.13354-1.72754,3.05005-3.89594-.07153-2.15649-1.57275-3.9436-3.33594-3.9436Z"/>
      <path class="d" d="M127.8988,297.18281c-2.71655,0-4.84912,2.57343-4.75391,5.74261.09521,3.14532,2.35913,5.71875,5.0874,5.71875,2.70435,0,4.83691-2.57343,4.75391-5.71875-.09546-3.16919-2.37109-5.74261-5.0874-5.74261Z"/>
      <path class="d" d="M129.41199,268.67225c.14258.65527.78613,1.07227,1.44141.95312l3.00244-.5838s.01196,0,.03564-.0119c-.85767-.89355-1.64404-2.00159-1.44165-3.21686.07153-.4884.27393-.90546.5603-1.26288.19043-.23828.41675-.46466.66675-.65527.25049-.20251.52466-.39319.78662-.55994l.61963-.38123c.40479-.23834.7981-.46466,1.11987-.7149.02368-.0119.03564-.0238.04761-.03571.09497-.05957.17847-.13104.26196-.21448.15479-.14294.28613-.29785.36963-.46466l.10693-.28589c.02393-.07147.03564-.15491.03564-.23834,0-.11908-.02368-.23828-.05957-.36932-.36938-1.20331-4.13403-2.97852-3.979-4.71802.19043-1.82281,2.88306-1.72754,3.63354-2.03729.45288-.19061.84619-.53613.94116-.98889.15503-.64331-.29785-1.27478-.73853-1.76324-1.71582-1.93018-2.26392-2.51392-2.43042-2.93091-4.11035.16681-7.78003.30975-8.05396.30975-.7627.0238-1.32251.75061-1.1438,1.48932l4.21777,18.68134Z"/>
      <path class="d" d="M141.88611,262.21479c.45239.45276.75024,1.14374.52393,1.73944-.3335.81018-1.40576.94128-2.27539,1.13184-1.1438.22638-3.25244,1.1795-3.63379,2.12079-.21436.4765-.14307.98883.36938,1.26288,4.81299-.92932,13.72485-2.64496,13.87964-2.65692.5957-.11908,1.00098-.64331,1.00098-1.19141,0-.10718-.01172-.21442-.04761-.32159l-4.31323-15.66718c-.1665-.52423-.65479-.88159-1.20312-.88159-.05957,0-.22632,0-.45264.0119.60767.35742.46436,1.53693-.47681,2.07306-.66699.35742-1.42969.39319-2.15625.57184-1.90625.5481-2.073,2.06116-.73877,3.06195.52441.39319,1.1438.63147,1.69214,1.0127,1.53662,1.07227,1.08398,2.69257-.64355,3.10962-.75073.20251-1.54883.15491-2.32349.33356-.75049.17877-1.53662.703-1.60815,1.46552-.15503,1.41772,1.65576,2.07306,2.40674,2.82361Z"/>
      <path class="d" d="M104.88049,270.82874c.16675-.78638.66724-1.54883,1.59668-1.95398.75049-.32172,1.63208-.33356,2.25171-.88159.85767-.69104.85767-1.96588.52417-3.00244-.61938-1.98962-2.2041-3.75287-2.09692-5.83789.05957-1.0484.61963-2.10883,1.58447-2.50201.53613-.19055,1.12012-.20251,1.57275-.52417.65552-.45276.77441-1.38202.57202-2.14453-.20288-.76257-.64331-1.44159-.92944-2.18036-.27393-.72675-.36938-1.6203.0835-2.26361.05957-.04773.09521-.1192.15479-.15491-2.60913.11914-5.11133.22638-5.2063.22638-.53638.04761-.96509.4765-.96509,1.00073v19.22943c0,.48853.35742.91742.85767.98895Z"/>
      <path class="d" d="M121.27429,269.85175s-.01172-.01196-.01172,0l.01172.0119v-.0119Z"/>
      <path class="d" d="M121.39368,270.45936q-.01196-.0238-.01196-.03577c0-.04761-.01172-.07147-.01172-.11908-.01221-.07153-.03589-.15491-.05981-.25024-.01196-.09528-.03589-.15491-.04761-.20251q.01172-.01196,0-.02386c0-.03571-.02393-.05957-.02393-.07147v-.0119c-.3335-1.70374-1.33423-6.46942-3.88403-18.43115-.21436.15485-.48828.28589-.75049.38123-.72681.25024-1.54883.35742-2.12061.84595-.96509.82202-.88159,2.34705-.30981,3.47888.76221,1.56079,3.05005,3.74109,2.03711,4.9801-.42871.53619-1.23901.47662-1.90625.60767-1.56055.34546-2.56152,2.22791-1.9895,3.70526.40503.97699,1.78711,2.23987,1.07202,3.40747-.57178.94122-2.14429.65521-2.94263,1.42969-.26221.27399-.41675.61957-.52417,1.00079l10.47266.63141c.65527.04767,1.19141-.55988,1.03613-1.21527,0,0,0-.05951-.0354-.10718Z"/>
      <path class="d" d="M36.69592,251.99244l-22.63696.60767c-1.16748.03571-2.04907,1.00073-2.00146,2.2041l.5481,11.77118c.07153,1.25092,1.10791,2.32324,2.34692,2.38281l22.72046.89355c1.22681.04761,2.20386-.92926,2.14429-2.2041l-.61963-13.27234c-.05908-1.31061-1.20288-2.40674-2.50171-2.38287ZM31.40613,263.16791c-.72681-.22638-1.22705-.63147-1.82275-1.10797-.5957-.50049-.66748-.5481-1.3584.32159-.83398,1.09619-1.51318,2.01349-2.44238,2.7641-2.12061,1.67993-4.94434,1.57269-6.45752-1.0127-.38135.34552-.79834.69104-1.25098.98895-.61963.41693-1.45361.27399-1.89429-.36938-.42896-.61957-.26196-1.47742.36938-1.89435.66699-.45276,1.27466-1.00085,1.77515-1.63226-.25024-1.32245-.25024-2.69257,0-4.03888.47656-2.59729,2.58545-2.99048,3.71704-2.14453,1.76343,1.31049.39331,4.88477-.77417,6.7196.19043.58374.52417,1.44153,1.07202,1.69177.44116.20251,1.16772.0119,1.75146-.45276.52441-.39319.84619-.82208,1.97803-2.32324,1.56055-1.96582,2.75195-1.64417,2.93066-1.71564,1.65601,0,2.40674,1.25092,3.1333,1.56073.38135-.4765,1.04858-.65527,1.63232-.39313,1.88232.85779.22632,3.8125-2.35889,3.03809Z"/>
      <path class="d" d="M156.18298,286.22175c-2.91895,0-5.20654,3.37177-5.20654,7.68463,0,4.32489,2.2876,7.69659,5.20654,7.69659,2.93066,0,5.21826-3.3717,5.21826-7.69659,0-4.30096-2.2876-7.68463-5.21826-7.68463ZM156.18298,298.88648c-1.16748,0-2.47827-2.13257-2.47827-4.96814,0-2.84753,1.31079-4.95636,2.47827-4.95636,1.17944,0,2.49023,2.12079,2.49023,4.95636s-1.31079,4.96814-2.49023,4.96814Z"/>
      <path class="d" d="M110.45642,275.1178l-5.6355-.50043c-.73853-.05951-1.41772.48846-1.47729,1.25098-.07129.75061.50049,1.41779,1.25098,1.47736.0835,0,5.64746.50043,5.74268.50043.69092,0,1.29858-.53613,1.35815-1.25104.05957-.73865-.50024-1.40582-1.23901-1.47729Z"/>
      <path class="d" d="M132.10437,217.77497c.75049,0,1.35815-.60754,1.35815-1.35815v-28.23651c0-.75061-.60767-1.37018-1.36987-1.37018-.75073,0-1.37036.61957-1.37036,1.37018v28.23651c.01196.75061.61963,1.35815,1.38208,1.35815Z"/>
      <path class="d" d="M131.21081,221.63526v2.57343c0,.75055.61938,1.37012,1.37012,1.37012s1.37036-.61957,1.37036-1.37012v-2.57343c0-.75061-.60791-1.37018-1.37036-1.37018-.75073,0-1.37012.6076-1.37012,1.37018Z"/>
      <path class="d" d="M147.7301,165.13593c-.71118-.25018-1.49268.13275-1.73511.84418l-2.25854,6.52588c-.30493.88318.35181,1.80542,1.28955,1.80542.56274,0,1.09424-.35175,1.28979-.91443l2.25854-6.52606c.24219-.71118-.13306-1.49255-.84424-1.73499Z"/>
      <path class="d" d="M158.10852,174.16956l-8.95679,3.18878c-.70337.25806-1.07861,1.03949-.82861,1.74286.2583.71918,1.03979,1.07855,1.74316.82849l8.95679-3.18878c.71118-.25006,1.07837-1.03162.82837-1.74286-.25024-.71118-1.03174-1.07849-1.74292-.82849Z"/>
      <path class="d" d="M171.4447,273.67622c-8.69702-3.43127-9.73364-3.72913-11.24683-4.77759-1.10791-.76251-1.71558-1.56073-2.25171-2.95471-4.92065-13.01025-4.16992-23.45892-8.78076-23.42322-.25024,0-5.74243.04761-5.98071.04761l-.1311-60.24976c0-1.53693-1.03662-2.88324-2.5022-3.26453l-55.4126-15.47644-6.08813-1.51306c-1.09595-.27405-2.25195-.30975-3.37158-.08344l-28.92773,5.68304c-11.15137,2.22791-15.5957,3.12146-17.18018,3.44318,0,0-.03564,0-.1311.02386-.01196,0-.0354,0-.05933.0119l-.05957.0119c-.02393,0-.04785,0-.07153.0119-.01196,0-.04761.0119-.0835.02386-.05933,0-.1189.0119-.19067.03577-.02368,0-.03564,0-.04761.01184-.02368,0-.04761,0-.05957.0119-.05933.01196-.08325.01196-.08325.01196h-.01221l-26.02026,5.17078c-1.62036.30969-2.77612,1.73938-2.7522,3.38354l1.02466,96.75482c.03589,1.72754,1.28662,3.14532,3.0144,3.34784l15.55957,1.81097v10.41296c0,.67914.50049,1.25098,1.15576,1.34631l16.70361,2.62103c1.00098,5.40906,5.71875,9.45984,10.71094,7.63702,1.25098.46466,2.74023.09534,3.93164.02386,1.69165-.14307,3.27637-.38129,4.75366-.72681,2.02539-.47656,3.62183-1.25098,4.22949-3.2287,30.86987,4.8252,28.35571,4.45587,28.65356,4.46777.05957,0,.10742,0,.15479-.0119l9.12646-1.53699c.66699.1192,13.08154,2.26373,13.34375,2.26373,1.23926,0,3.87207.82208,4.77759.79822,1.56079,5.45673,6.08813,9.44788,11.3064,9.44788,1.00073,0,1.98975-.15479,2.94287-.4408,2.15649-.32159,4.31274-.79822,6.40991-1.26288.88135-.20251,1.75146-.39313,2.62109-.5838.73853-.15491,1.75122-.36932,2.65698-.85779.75024-.41705,1.33398-.98889,1.71533-1.64417.84595-.04767,1.63232-.32166,2.29932-1.00079,1.60864,0,3.43164-.96503,4.87305-1.40588l23.87598-7.11267c.57202-.16681.96484-.67914.97705-1.26294.5835-21.67181.67896-20.93311.26221-22.38672-.87012-2.85931-4.03906-2.97852-5.63574-3.60992ZM149.08215,245.22523c1.10791.61951,2.70435,9.43597,2.99048,10.69885.85791,3.72919,1.97754,7.42255,3.32422,10.99677.17847.45276.3689.86975.57178,1.25104l-27.11694,4.95624c-.50024-.66718-.92896-1.37012-1.1792-1.97772-1.06055-2.64496-1.87061-5.36133-2.7522-8.62585-1.90649-7.1842-3.479-15.39307-3.479-15.41693-.23828-1.0365-.38135-1.26288-.60791-1.79895,1.21533.03571,2.46631.17865,3.61011.16675.72681,0,4.50366-.04767,24.63867-.25018ZM47.68078,301.04298c-3.64575,1.82288-7.72046-2.28748-7.74414-6.79108-.14331-4.05078,2.60913-7.86334,6.36206-6.85065,5.56396,1.48926,6.39795,11.27081,1.38208,13.64172ZM4.3612,277.21467c-.3457-.03571-.5957-.33356-.60791-.67908l-1.02466-96.75476c-.01196-.32172.21436-.6076.5481-.66718l24.44775-4.87292.20264,24.97211c.02368,1.16754,1.08423,2.04919,2.22803,1.84668l16.63208-2.89514c.91724-.15491,1.57275-.95312,1.57275-1.87054v-26.17542l27.47388-5.46857,1.63232,121.07153c-3.76489-.42889-59.2251-6.88641-73.10498-8.50671ZM98.13733,243.43812c-.72681.95312-.50073,2.15643-.50073,2.82361v4.94434l-7.42236,32.44226c-.42871.08344-9.44775,1.77521-10.01978,1.87054l-1.64404-120.96436,61.28638,17.12067c.92896.25018.27393-2.66876.6311,60.91699-.14282,0-9.50732.10724-14.68994.10724-1.62036,0-2.83569-.0119-3.24048-.03577-1.54883-.09534-3.53857-.23828-5.01587.27405-.61963-.10724-16.59668-.39313-16.77515-.40509-.63159-.04761-1.81104-.14294-2.60913.90552ZM128.42297,312.5282c-4.5752,0-8.47095-4.14606-9.07886-9.44788.26245-4.68225,2.4187-7.45831,4.78955-8.54242.86963-.39319,2.02563-.86981,3.20508-.98889,3.82446-.40515,8.8999,3.53845,9.57886,9.44788-.25024,5.12305-3.729,9.53131-8.49463,9.53131ZM145.6029,304.47425c.05981,1.16754.10742,2.2041-.32153,2.95465-.53613.64343-1.97778.1192-3.30029-.10718-.90527-.15485-1.57251-.10724-1.70361-.39319-.52417-1.0722-.45264-2.216-.64331-4.09845.3335-11.86646-12.00928-18.38348-19.40796-10.77039-2.52612,2.59729-4.01538,6.54089-3.62207,10.92529-8.4353-1.45349-12.67676-2.1803-14.67822-2.51385-.10742-.02386-.53613-.09534-1.54883-.27405,0-.17871,0-54.17365-.04785-54.97186.07153,0,.15503,0,.2146.0119,17.60889.38123,17.46606-.15485,18.08569,1.89435.30981.78638,1.15552,6.70764,3.65771,16.08411.7981,2.91895,1.67993,6.00476,2.85938,8.94751.88159,2.1684,3.18091,4.9801,5.43286,5.95709,2.16821,1.00079,6.33813,2.25177,13.10547,5.31372.3811.16675,1.75146.60754,1.89429.73865.28613.40503.17896,1.33441.04761,13.42719-.05933,6.76733-.07153,5.86182-.02393,6.87451ZM174.51868,283.24323c-3.3479-3.33594-8.14917-.07147-8.14917,6.38599,0,5.81409,4.22949,9.65045,7.80371,6.66003l-.07129,2.32324c-28.40356,8.51855-14.92847,4.32483-25.78247,7.85138.10742-1.19141-.03589-2.25171-.02368-3.09766l.04761-5.63538c.14307-14.59479.95312-15.21436-2.96655-16.57257-.21436-.07147-.42871-.14301-.58398-.21448-6.87451-3.10956-12.15234-4.76562-13.46289-5.50433l26.60425-4.87292c2.02539,1.69189,3.22876,1.97784,12.48608,5.6355.3335.13098.70312.22632,1.06055.32159l-15.47681,3.51471c-.72656.15491-1.19141.89355-1.02441,1.6322.16675.73871.90552,1.19141,1.63208,1.02466l17.93091-4.06274c.1311,1.09607.03564,2.03735-.02393,4.61078ZM174.05408,289.62922c0,2.84747-1.31055,4.9682-2.47803,4.9682-1.17969,0-2.49023-2.13263-2.49023-4.9682,0-2.84747,1.31055-4.9563,2.49023-4.9563,1.17944-.0119,2.47803,2.10883,2.47803,4.9563Z"/>
      <path class="d" d="M368.1366,70.07178c20.40137,7.77374,37.1687,24.33643,45.3291,44.56921l-17.646-5.10248c-1.58008-.45612-3.2312.45374-3.68848,2.03436-.45703,1.58002.45386,3.23157,2.03394,3.68884l21.31274,6.16241c.448.12915,1.14722.3316,1.97314.3316.43311,0,.90063-.05585,1.38477-.20648,1.47754-.46252,2.34204-1.58759,2.75732-2.12866,4.52954-5.89832,8.11084-12.43475,10.64136-19.42792.55957-1.54688-.23975-3.25488-1.78711-3.81451-1.54614-.56256-3.25415.24023-3.81396,1.7865-1.88892,5.21808-4.42407,10.15216-7.53564,14.72589-8.73218-21.87488-26.81616-39.79321-48.83887-48.18494-1.53589-.58582-3.25903.185-3.84424,1.72253-.58643,1.53699.18506,3.25836,1.72192,3.84363Z"/>
      <path class="d" d="M444.5509,331.41944c-1.63184-.04401-3.01074,1.25873-3.05151,2.90302-.67651,26.93005-11.88916,51.29138-29.99292,65.16742-12.58667,9.64624-28.73657,14.60425-42.54199,18.40997,4.74878-6.35809,8.8811-13.16101,12.3147-20.33575.71021-1.48413.0835-3.2619-1.40063-3.97217-1.48315-.71045-3.26221-.08472-3.97241,1.40057-4.72119,9.86267-10.80615,19.00238-18.08521,27.16455-.68066.76398-.92236,1.82251-.63989,2.80615s1.05029,1.75183,2.03223,2.03711c13.14233,3.81177,26.729,5.33313,40.38232,4.521.06641-.00476.13135-.01056.19604-.01862,1.54468-.19312,2.69458-1.55634,2.60083-3.1322-.09863-1.64215-1.50879-2.89404-3.15088-2.79663-9.63672.57428-19.23535-.09033-28.65454-1.94763,16.86353-4.69189,31.90332-9.72101,44.54272-19.409,19.51953-14.95941,31.604-41.03259,32.32373-69.74561.04175-1.64441-1.2583-3.01093-2.90259-3.05219Z"/>
      <path class="d" d="M166.505,425.06611c-21.79761-4.87305-42.62524-19.15283-58.64624-40.21234-6.38232-8.39014-10.29199-15.64539-12.30273-22.82892-1.72681-6.16571-1.92065-12.40381-.65137-17.91742,2.66309,7.18762,6.98389,13.79889,12.52417,19.05951,1.1897,1.13184,3.07642,1.08508,4.20996-.10913,1.1333-1.19189,1.08423-3.07764-.10913-4.21002-6.29175-5.9751-10.80029-13.92999-12.69482-22.39771-.24585-1.09637-1.08643-1.94531-2.1582-2.22485-.21143-.21173-.44702-.40405-.72705-.54907-1.45898-.75745-3.25732-.18658-4.01562,1.27271-1.08154,2.08533-1.93384,4.30115-2.55981,6.61395-3.98926,5.46753-8.6167,10.43115-13.82422,14.80566-1.25977,1.05804-1.42358,2.93652-.36572,4.19623.48291.57434,1.1355.92084,1.82178,1.02765.81982.1275,1.68921-.08691,2.37451-.66205,3.10864-2.6109,6.01953-5.4223,8.73267-8.409.09375,3.62781.65601,7.36023,1.70581,11.1095,2.2207,7.93091,6.44604,15.82056,13.29858,24.83014,16.87158,22.17627,38.92188,37.23975,62.0874,42.41864.06494.01361.12988.02612.19556.03632,1.53711.2392,3.01733-.75391,3.36182-2.29346.35815-1.60571-.65259-3.19836-2.25732-3.55634Z"/>
      <path class="d" d="M87.65539,141.69141c.37012.15186.75391.224,1.1311.224,1.17139,0,2.28271-.69574,2.7561-1.84644,10.7688-26.19989,32.06714-48.34955,57.74756-60.42181-3.07788,6.70374-4.26636,14.31458-3.20776,21.58215.21533,1.4823,1.48828,2.5498,2.9436,2.5498.14209,0,.28735-.0105.43286-.03143,1.62769-.23737,2.75513-1.74933,2.51782-3.37701-1.26343-8.6814,1.25781-17.94977,6.74585-24.79401.68066-.84821.84473-2.00006.42822-3.00415-.4165-1.00464-1.34717-1.70215-2.42822-1.82025-9.45801-1.03143-18.90674-3.91864-27.32446-8.34924-1.45435-.76495-3.25659-.20764-4.02222,1.24847-.76685,1.45551-.20825,3.25714,1.24829,4.02332,5.94312,3.12805,12.36597,5.53131,18.95361,7.13745-26.47607,12.81866-48.38428,35.84033-59.54541,62.99194-.62476,1.5213.10132,3.26184,1.62305,3.88721Z"/>
      <path class="d" d="M223.4093,38.13c3.07007,0,5.82983-2.60999,6.42993-6.07001l.02002-.09998,22.58008-.52002-.4502.23999c-4.27002,2.38-12.00977,8.60004-15.82983,23.60004l-.02002.08997-.09009.01001c-2.92993.19-5.38989,2.25-6.26001,5.23004-.51001,1.95996-.05005,4.03998,1.25,5.71997,1.31006,1.69,3.27002,2.69,5.23999,2.69,3.43018,0,5.68994-2.84003,6.34009-5.48999.59985-2.45001.04004-5.70001-3.32007-7.45001l-.08984-.04999.02002-.10004c1.98975-7.75995,5.38989-14,10.09985-18.51996,2.79004-2.67004,6.42017-4.48999,10.80005-5.40002l.1001-.02002.03979.10004c1.17017,2.83997,3.98999,4.33002,6.17017,4.33002,2.57983,0,4.95996-1.82001,6.0498-4.63l.04004-.09003.1001.01001c9.6001,1.25,14.03003,3.46997,19.72998,13.45001,1.91992,3.34998,2.77002,7.14001,3.40991,10.73999l.02002.09998-.08984.04004c-1.90015.90997-3.18018,2.44995-3.80005,4.57001-.95996,3.72998,1.47998,6.88995,4.26001,7.95996,2.47998.95001,5.85986.57001,7.91992-3.34998,1.13013-2.20001,1.13989-4.60004.01001-6.59003-1.06006-1.89001-2.96997-3.09998-5.10986-3.25h-.1001l-.02002-.09998c-2.41992-13.75-10.14014-21.69-16.02002-24.29999l-.51001-.23004,18.42993-.42999.02002.10999c.39014,2.95001,2.66016,5.37006,5.52002,5.89001,2.76001.48999,5.30005-.89001,6.78003-3.70996,1.08008-2.07001,1.15015-4.29004.19995-6.24005-.8999-1.82996-2.59985-3.14996-4.56006-3.51996-3.02979-.59003-6.25,1.23999-7.47998,4.23999l-.02979.08002-28.41016.65997-.02002-.09003c-.71997-2.96997-3.10986-4.92999-6.06982-4.98999h-.13013c-2.38989,0-5.5,1.36005-6.62988,5.25,0,.01001,0,.02002-.01001.03003l-.02002.08997-.09009.01001-30.23999.70001-.03003-.08002c-.96997-2.65997-3.25-4.28998-5.98999-4.28998-.08008,0-.1499,0-.21997.01001-2.98999.08997-5.52002,2.14996-6.42993,5.25-.51001,1.95001-.05005,4.03998,1.25,5.70996,1.31006,1.69,3.27002,2.70001,5.23999,2.70001ZM239.17932,63.77002c-.44995.84998-.96021,1.37-1.46997,1.66998-.51001.31-1.02002.41003-1.4502.41003-.5,0-.8999-.12-1.11987-.20001-1.48999-.58002-2.79004-2.40002-2.29004-4.33002l.08008-.25c.47998-1.39001,1.71997-2.39996,3.13989-2.56,1.23999-.14996,2.37012.40002,3.08008,1.51001.71997,1.14001.72998,2.39001.03003,3.75ZM298.14929,58.5c1.28003-.13995,2.3999.41003,3.10986,1.52002.38013.59998.54004,1.22998.54004,1.84003,0,1-.41992,1.94995-.91992,2.60999-.69995.90997-1.62012,1.42999-2.46997,1.42999-.19995,0-.39014-.02002-.58008-.08002l-.22998-.08002c-1.97998-.56-3.13989-2.5-2.63989-4.42999l.07983-.23999c.48999-1.39996,1.71021-2.40997,3.11011-2.57001ZM303.96911,28.72003l.08008-.26001c.52002-1.5,2-2.59003,3.51001-2.59003.96997,0,1.89014.47003,2.52002,1.27002.65015.84998.88989,1.94.63989,2.92999-.30981,1.25-1.03979,2.29004-2.01978,2.85004-.44019.23999-.90015.37-1.32007.37-.17993,0-.3501-.02002-.52002-.07001l-.25-.09003c-1.93994-.53998-3.12988-2.52997-2.64014-4.40997ZM262.99939,28.76001l.08984-.28998c.48999-1.40002,1.71997-2.41003,3.14014-2.57001,1.25-.14001,2.37988.40997,3.07983,1.52002,1,1.56995.40991,3.38-.3999,4.44-.69995.91998-1.61011,1.44-2.44995,1.44-.2002,0-.38013-.03003-.56006-.08002l-.25-.09003c-1.93994-.53998-3.14014-2.51001-2.6499-4.37ZM219.97937,30.42004l.07983-.24005c.47998-1.38995,1.71997-2.39996,3.13013-2.56,1.25-.14996,2.37988.40002,3.08984,1.51001,1,1.58002.40015,3.39001-.41992,4.46002-.68994.90997-1.6001,1.41998-2.42993,1.41998-.19995,0-.39014-.02002-.57007-.08002l-.23999-.07996c-1.97998-.56-3.13989-2.5-2.63989-4.42999Z"/>
      <path class="d" d="M189.00915,91.63v.01001c.28003,13.40002,5.94019,20.17999,17.32007,20.72998,2.31006.12,11.70996.20001,43.40991-.06l.82007-.00995.01001.12c.12012,1.65997.1499,3.14996.09009,4.56995v.05005l-.04004.03998c-.92993.72003-2.08008,1.53998-3.31006,2.40997-5.79004,4.11005-13.71997,9.73004-12.62988,15.69.6499,3.54004,7.35986,3.57001,11.02002,3.57001h.1499q38.53003-.07001,39.36011-.03998h.1499c3.66992.08002,11.33008.25,12.30005-4.81.94995-4.95001-7.36011-11.02002-12.8501-15.03003-1.34009-.97998-2.5-1.82996-3.37988-2.53998l-.03003-.02997-.01001-.04004c-.25-1.33002-.40991-2.67999-.47998-4.02002l-.01001-.12994h.12988c1.20996,0,2.9502-.01001,5.03003-.02002,10.01001-.06,28.63013-.17999,33.86011.04999.42993.02002.85986.03998,1.28003.07001,5.51001.29999,11.19995.60999,16.05981-1.89001,7.05005-3.60999,8.14014-11.09998,8.28003-18.64996.13013-5.96002.33008-12.68005.54004-19.78003.54004-18.04999,1.15015-38.5.79004-53.67999-.3501-16.87-9.67993-18.21002-21.83008-18.21002h-115.53003c-12.15991,0-21.48999,1.34003-21.83984,18.20001-.33008,15.28998.27002,35.83002.81006,53.96002.20996,7.01996.3999,13.65997.52979,19.46997ZM281.68933,120.67004l.04004-.19.59985.42999c5.51001,4,12.77002,9.64001,12.25,12.39996-.11011.53003-.48999.98004-1.13989,1.33002-.65015.34003-1.58008.59998-2.78003.75-1.90991.26001-4.08008.21002-5.25.17999-5.97998-.12-13.32007-.06-20.40991.01001-3.98022.03003-7.90015.07001-11.47021.07001-8.06006,0-14.34985-.17999-15.69995-.95001l-.05005-.02002-.01001-.06c-.75-4.09998,7.73022-10.04999,11.81006-12.91998.33008-.21997.62012-.42999.88989-.62l.15015-.10999.04004.19c.68994,3.23999,3.5,5.51001,6.84009,5.51001.13989,0,17.17993-.20001,17.45996-.22003,3.34985-.02997,6.11987-2.39996,6.72998-5.77997ZM190.8092,18.27002c.13013-6.42999,1.40991-10.21002,4.36011-12.39001,2.93994-2.17999,7.56006-2.75,14.33984-2.75h115.53003c13.57007,0,18.42993,2.29004,18.69995,15.15002.34009,14.64996-.18994,32.96997-.80981,54.17999-.17017,6.16998-.36011,12.54999-.53003,19.15002-.11011,6.12994-.70996,12.91998-6.57007,15.91998-4.12988,2.13-9.31006,1.83002-14.32007,1.54999-.48999-.02002-.96997-.04999-1.45996-.08002-6.36987-.26001-34.45996-.07001-61.61987.12-16.26001.11005-31.92017.21002-41.8501.21002-5.11987,0-8.70996-.02997-10.09009-.09998-9.67993-.47003-14.09985-5.91003-14.33984-17.66003-.13013-5.85999-.33008-12.52997-.54004-19.58002-.53003-18.06-1.12988-38.51996-.80005-53.71997Z"/>
      <path class="d" d="M199.71911,85.01001c.12012,5.53003,1.42017,9.71002,3.93018,12.54999,2.5,2.84003,6.21997,4.36005,11.17993,4.58002,3.78003.19,24.13013.04999,45.67017-.08997,22.8999-.16003,46.57983-.31006,52.06982-.10004.36011.02002.72998.03998,1.1001.06,4.76001.25,9.66992.5,13.88989-1.54999,7.04004-3.40002,7.19019-11.22003,7.27002-15.41998.11011-4.85004.28003-10.34003.46997-16.16003.45996-14.62.98999-31.17999.68018-43.54999-.31006-13.97998-8.43018-15.09003-19.01025-15.09003h-99.3999c-10.58008,0-18.69995,1.11005-19,15.09003-.29004,12.42999.22998,29.09003.68994,43.78998.18018,5.72003.3501,11.12.45996,15.89001ZM275.67932,89.37l-.01001.12h-13.64014l-.02002-.09998c-.91992-5.19-3.36987-11.79999-7.50977-14.82001l-.03027-.01996c-.30981-.22003-.81982-.59003-1.02979-.76001l-.07007-.05005.03003-.07996c.56006-1.91003,11.11987-20.69,12.23999-22.66003l.21997-.38995.20996,9.95996-.08008.03003c-2.35986.90997-3.81982,3.08997-3.69995,5.56.08008,1.95996,1.22998,4.35999,4.17993,5.19,1.96021.62,4.05005-.14001,5.46021-1.98004,1.55005-2.01996,1.71997-4.63.43994-6.64996-.69995-1.10999-1.80005-1.91998-3.08008-2.27002l-.08984-.02997-.19019-9.47003,12.41016,18.88c.36987.57001.75,1.02002,1.10986,1.46002.48999.58997.9502,1.14996,1.26001,1.83997l.05005.10004-.1001.06c-.19995.10999-.40991.21997-.62988.32996-.43994.21002-.8999.44-1.37012.80005-3.20996,2.41998-5.31982,6.31-5.78979,10.65997-.15015,1.35999-.23999,2.84003-.27002,4.28998ZM201.69934,25.40002c.10986-5.14001,1.1499-8.14001,3.62988-9.85999,2.47998-1.72003,6.38013-2.16003,12.23999-2.16003h99.3999c11.71021,0,15.65015,1.73999,15.87012,12.02002.30005,11.90002-.15991,26.78998-.68994,44.03998-.1499,5.01001-.31006,10.17999-.45996,15.54004-.11011,6.06-1.09009,10.52997-5.5,12.65997-3.51001,1.71002-7.97021,1.47003-12.29004,1.23999-.3999-.01996-.81006-.03998-1.20996-.06-3.07007-.12-11.37012-.14001-26.13013-.06h-.12988l.02002-4.33002c0-.47998,0-.72998.01978-.85999h-.01978c.05981-1.28998-.23999-2.23999-.92017-2.89001-1.22998-1.19995-3.51001-1.29999-6.56006-1.07996l-.13989.01001v-.14001c.04004-1.59003.12012-2.91003.23999-4.04999.3501-3.21002,2.20996-7.40002,5.5-9.03003,1.43018-.71002,2.22998-1.51001,2.43018-2.46002.25-1.16998-.38013-2.59998-2.04004-4.62l-.15015-.17999q-.55981-.67999-2.8999-4.26001c-1.92993-2.95996-5.54004-8.47998-12.46997-18.97998-.64014-.96002-1.37012-1.46997-2.13013-1.47998h-.02002c-.80005,0-1.60986.56-2.33984,1.60999-.98999,1.40997-5.19995,8.95001-11.8501,21.21002-.21997.40997-.34985.64996-.36987.66998-3.4502,6.13-3.2002,6.94-.08008,9.21002,3.29004,2.37994,5.38989,8.16998,6.18994,12.39996l.03003.15002h-.15991c-.36011-.02002-.74023-.04004-1.12012-.07001-2.05005-.14001-4.17993-.28998-5.62988,1.20001-.67017.69-1.04004,1.62-1.1001,2.76996-.07007,1.20001-.12012,4.33002-.02002,5.27002l.01001.13-2.20996.02002c-5.28003.03998-16.19995.12-24.30005.12-4.41992,0-7.98999-.03003-9.35986-.09003-8.29004-.38-11.92017-4.58997-12.13013-14.07001-.11011-4.82996-.28003-10.27997-.45996-16.03998-.44995-14.60999-.96997-31.17999-.68994-43.5Z"/>
    </g>
  </g>
</svg>